<?xml version="1.0" encoding="utf-8"?>
<!-- Uploaded to: SVG Repo, www.svgrepo.com, Generator: SVG Repo Mixer Tools -->
<!DOCTYPE svg PUBLIC "-//W3C//DTD SVG 1.1//EN" "http://www.w3.org/Graphics/SVG/1.1/DTD/svg11.dtd">
<svg fill="#000000" width="800px" height="800px" viewBox="0 0 1000 1000" version="1.1" xmlns="http://www.w3.org/2000/svg" xmlns:xlink="http://www.w3.org/1999/xlink"  enable-background="new 0 0 1000 1000" xml:space="preserve">
<metadata> Svg Vector Icons : http://www.onlinewebfonts.com/icon </metadata>
<g>
<g transform="translate(0.000000,511.000000) scale(0.100000,-0.100000)">
<path d="M4677.5,4601.8c-68.1-20-156.3-54.1-196.4-78.1c-40.1-24-945.7-689.3-2011.6-1478.7C1109.1,2035.1,496,1568.3,407.8,1476.1c-142.3-150.3-252.5-344.6-284.5-498.9c-32.1-150.3-30.1-4468.1,0-4616.4c74.1-348.6,408.7-683.2,755.4-755.4c150.3-32.1,8092.7-32.1,8242.9,0c354.6,74.1,689.2,416.8,757.4,777.4c28.1,148.3,28.1,4424,0,4572.3c-12,60.1-46.1,162.3-78.2,228.4c-122.2,260.5-176.3,304.6-2268.1,1857.4c-1074,795.4-1987.6,1466.6-2031.7,1492.7C5312.7,4637.8,4920,4671.9,4677.5,4601.8z M5138.4,4050.8c38.1-16,589.1-414.8,1226.2-887.6c639.2-472.8,1326.4-983.8,1530.8-1134l368.7-274.5H5004.1c-1793.2,0-3259.9,2-3259.9,6c0,4,42.1,38.1,96.2,76.1c52.1,36.1,725.3,537,1496.7,1108c771.4,573,1442.6,1063.9,1490.7,1088C4930,4084.8,5040.2,4090.8,5138.4,4050.8z M8696.8,1125.5c-94.2-88.1-3490.3-2608.7-3556.4-2638.8c-102.2-46.1-178.3-46.1-280.5,0c-62.1,28.1-3484.3,2570.7-3564.5,2648.8c-12,10,1450.6,18,3704.7,18C8179.9,1153.5,8720.9,1149.5,8696.8,1125.5z M2126.9-233C2896.3-810,3525.5-1284.9,3525.5-1290.9c0-8-2646.8-1987.6-2783-2081.8c-40.1-26-40.1-22-40.1,2079.8c0,1158.1,6,2105.8,14,2105.8C722.4,812.9,1357.5,342.1,2126.9-233z M9297.9-1292.9c0-1677-6-2101.8-24-2089.8c-64.1,40.1-2791.1,2077.8-2795.1,2089.8c-4,12,2779,2101.8,2805.1,2103.8C9291.9,812.9,9297.9-134.8,9297.9-1292.9z M4230.7-1813.9c104.2-78.1,232.4-164.3,286.5-192.3c196.4-100.2,484.9-130.2,735.3-78.1c172.3,38.1,266.5,86.2,488.9,250.4c100.2,74.1,192.4,142.3,206.4,150.3c16,10,531-362.6,1458.6-1053.9l1432.6-1067.9l-1913.5-6c-1051.9-2-2779-2-3838.9,0l-1925.5,6l1428.6,1065.9c785.4,587.1,1434.6,1065.9,1440.6,1067.9C4036.4-1671.6,4126.5-1735.7,4230.7-1813.9z"/>
</g>
</g>
</svg>